<?xml version="1.0" encoding="UTF-8"?>
<!DOCTYPE svg PUBLIC "-//W3C//DTD SVG 1.1//EN" "http://www.w3.org/Graphics/SVG/1.1/DTD/svg11.dtd">
<svg xmlns="http://www.w3.org/2000/svg" xmlns:xlink="http://www.w3.org/1999/xlink" version="1.1" width="98px" height="92px" viewBox="-0.5 -0.5 98 92"><defs><style type="text/css">@import url(https://fonts.googleapis.com/css2?family=Orbitron:wght@400;500);&#xa;@import url(https://fonts.googleapis.com/css2?family=+Sansita+Swashed+:wght@400;500);&#xa;@import url(https://fonts.googleapis.com/css2?family=Gluten:wght@400;500);&#xa;</style></defs><g><ellipse cx="8.83" cy="8.83" rx="8.829787234042554" ry="8.829787234042554" fill="rgb(255, 255, 255)" stroke="rgb(0, 0, 0)" pointer-events="all"/><path d="M 26.49 8.83 L 17.66 8.83" fill="none" stroke="rgb(0, 0, 0)" stroke-miterlimit="10" pointer-events="stroke"/><ellipse cx="35.32" cy="8.83" rx="8.829787234042554" ry="8.829787234042554" fill="rgb(255, 255, 255)" stroke="rgb(0, 0, 0)" pointer-events="all"/><path d="M 52.98 8.83 L 44.15 8.83" fill="none" stroke="rgb(0, 0, 0)" stroke-miterlimit="10" pointer-events="stroke"/><ellipse cx="61.81" cy="8.83" rx="8.829787234042554" ry="8.829787234042554" fill="rgb(255, 255, 255)" stroke="rgb(0, 0, 0)" pointer-events="all"/><ellipse cx="8.83" cy="32.97" rx="8.829787234042554" ry="8.829787234042554" fill="rgb(255, 255, 255)" stroke="rgb(0, 0, 0)" pointer-events="all"/><path d="M 8.83 17.66 L 8.83 24.14" fill="none" stroke="rgb(0, 0, 0)" stroke-miterlimit="10" pointer-events="stroke"/><ellipse cx="36.2" cy="32.97" rx="8.829787234042554" ry="8.829787234042554" fill="#000000" stroke="rgb(0, 0, 0)" pointer-events="all"/><ellipse cx="62.69" cy="32.97" rx="8.829787234042554" ry="8.829787234042554" fill="#000000" stroke="rgb(0, 0, 0)" pointer-events="all"/><ellipse cx="8.83" cy="57.12" rx="8.829787234042554" ry="8.829787234042554" fill="rgb(255, 255, 255)" stroke="rgb(0, 0, 0)" pointer-events="all"/><path d="M 8.83 41.8 L 8.83 48.29" fill="none" stroke="rgb(0, 0, 0)" stroke-miterlimit="10" pointer-events="stroke"/><ellipse cx="36.2" cy="57.12" rx="8.829787234042554" ry="8.829787234042554" fill="#000000" stroke="rgb(0, 0, 0)" pointer-events="all"/><ellipse cx="62.69" cy="57.12" rx="8.829787234042554" ry="8.829787234042554" fill="rgb(255, 255, 255)" stroke="rgb(0, 0, 0)" pointer-events="all"/><path d="M 77.7 8.83 L 70.64 8.83" fill="none" stroke="rgb(0, 0, 0)" stroke-miterlimit="10" pointer-events="stroke"/><ellipse cx="86.53" cy="8.83" rx="8.829787234042554" ry="8.829787234042554" fill="rgb(255, 255, 255)" stroke="rgb(0, 0, 0)" pointer-events="all"/><ellipse cx="87.41" cy="32.97" rx="8.829787234042554" ry="8.829787234042554" fill="#000000" stroke="rgb(0, 0, 0)" pointer-events="all"/><path d="M 78.59 57.12 L 71.52 57.12" fill="none" stroke="rgb(0, 0, 0)" stroke-miterlimit="10" pointer-events="stroke"/><ellipse cx="87.41" cy="57.12" rx="8.829787234042554" ry="8.829787234042554" fill="rgb(255, 255, 255)" stroke="rgb(0, 0, 0)" pointer-events="all"/><ellipse cx="8.83" cy="81.26" rx="8.829787234042554" ry="8.829787234042554" fill="rgb(255, 255, 255)" stroke="rgb(0, 0, 0)" pointer-events="all"/><path d="M 8.83 65.95 L 8.83 72.43" fill="none" stroke="rgb(0, 0, 0)" stroke-miterlimit="10" pointer-events="stroke"/><ellipse cx="36.2" cy="81.26" rx="8.829787234042554" ry="8.829787234042554" fill="rgb(255, 255, 255)" stroke="rgb(0, 0, 0)" pointer-events="all"/><path d="M 17.66 81.26 L 27.37 81.26" fill="none" stroke="rgb(0, 0, 0)" stroke-miterlimit="10" pointer-events="stroke"/><path d="M 68.94 75.01 L 81.17 63.36" fill="none" stroke="rgb(0, 0, 0)" stroke-miterlimit="10" pointer-events="stroke"/><ellipse cx="62.69" cy="81.26" rx="8.829787234042554" ry="8.829787234042554" fill="rgb(255, 255, 255)" stroke="rgb(0, 0, 0)" pointer-events="all"/><path d="M 45.03 81.26 L 53.86 81.26" fill="none" stroke="rgb(0, 0, 0)" stroke-miterlimit="10" pointer-events="stroke"/><ellipse cx="87.41" cy="81.26" rx="8.829787234042554" ry="8.829787234042554" fill="#000000" stroke="rgb(0, 0, 0)" pointer-events="all"/></g></svg>